<svg xmlns="http://www.w3.org/2000/svg" xmlns:xlink="http://www.w3.org/1999/xlink" version="1.1" id="Layer_1" x="0px" y="0px" width="71.467px" height="71.465px" viewBox="0 0 71.467 71.465" enable-background="new 0 0 71.467 71.465" xml:space="preserve">
<path d="M60.812,17.227C60.36,11.34,55.928,6.581,50.192,5.625c-0.688-0.114-1.388-0.187-2.11-0.187  c-0.729,0-1.442,0.067-2.138,0.187c-1.691,0.29-3.268,0.911-4.666,1.793c-1.365,0.861-2.561,1.961-3.51,3.26  c-0.028,0.035-0.061,0.067-0.085,0.104C37.616,10.875,0.084,64.486,0.084,64.486c0.074,0,21.532,0.002,30.384,0.002  c16.752,0.002,30.336-13.553,30.388-30.293c0-0.03,0.001-0.061,0.002-0.092v-6.768l10.296-5.044L60.812,17.227z M49.561,19.156  c-1.042,0-1.885-0.845-1.885-1.886c0-1.041,0.843-1.883,1.885-1.883c1.041,0,1.886,0.842,1.886,1.883  C51.446,18.311,50.602,19.156,49.561,19.156z"/>
</svg>